<svg xmlns="http://www.w3.org/2000/svg" viewBox="0 0 256 256" role="img" aria-label="Astronaut">
  <defs>
    <radialGradient id="space" cx="48%" cy="34%" r="86%">
      <stop offset="0%" stop-color="#24335f"/>
      <stop offset="100%" stop-color="#090f1f"/>
    </radialGradient>
    <linearGradient id="suit" x1="0" y1="0" x2="1" y2="1">
      <stop offset="0%" stop-color="#f8fafc"/>
      <stop offset="58%" stop-color="#dbe4f0"/>
      <stop offset="100%" stop-color="#a7b5c9"/>
    </linearGradient>
    <radialGradient id="visor" cx="34%" cy="28%" r="76%">
      <stop offset="0%" stop-color="#f0f9ff"/>
      <stop offset="40%" stop-color="#93c5fd"/>
      <stop offset="100%" stop-color="#1d4ed8"/>
    </radialGradient>
  </defs>
  <rect width="256" height="256" fill="url(#space)"/>
  <g opacity="0.35">
    <circle cx="42" cy="42" r="1.8" fill="#e2e8f0"/>
    <circle cx="74" cy="66" r="1.5" fill="#dbeafe"/>
    <circle cx="216" cy="54" r="1.7" fill="#e2e8f0"/>
    <circle cx="228" cy="178" r="1.6" fill="#dbeafe"/>
  </g>

  <rect x="78" y="126" width="100" height="92" rx="24" fill="url(#suit)" stroke="#94a3b8" stroke-width="5"/>
  <rect x="92" y="138" width="72" height="26" rx="8" fill="#e2e8f0" stroke="#94a3b8" stroke-width="2"/>
  <rect x="103" y="173" width="50" height="35" rx="9" fill="#9aa9bf"/>
  <circle cx="114" cy="189" r="4" fill="#334155"/>
  <circle cx="128" cy="189" r="4" fill="#334155"/>
  <circle cx="142" cy="189" r="4" fill="#334155"/>

  <rect x="62" y="138" width="18" height="58" rx="9" fill="#dbe4f0" stroke="#94a3b8" stroke-width="3"/>
  <rect x="176" y="138" width="18" height="58" rx="9" fill="#dbe4f0" stroke="#94a3b8" stroke-width="3"/>
  <circle cx="71" cy="199" r="10" fill="#c7d2e2" stroke="#94a3b8" stroke-width="2"/>
  <circle cx="185" cy="199" r="10" fill="#c7d2e2" stroke="#94a3b8" stroke-width="2"/>

  <rect x="98" y="210" width="22" height="30" rx="10" fill="#dbe4f0" stroke="#94a3b8" stroke-width="3"/>
  <rect x="136" y="210" width="22" height="30" rx="10" fill="#dbe4f0" stroke="#94a3b8" stroke-width="3"/>
  <ellipse cx="109" cy="242" rx="14" ry="7" fill="#9aa9bf"/>
  <ellipse cx="147" cy="242" rx="14" ry="7" fill="#9aa9bf"/>

  <circle cx="128" cy="92" r="58" fill="url(#suit)" stroke="#94a3b8" stroke-width="6"/>
  <circle cx="128" cy="92" r="40" fill="url(#visor)"/>
  <ellipse cx="114" cy="79" rx="12" ry="8" fill="#ffffff" opacity="0.75"/>
  <path d="M96 100c18 10 36 10 64 0" stroke="#60a5fa" stroke-opacity="0.55" stroke-width="4" fill="none" stroke-linecap="round"/>
  <circle cx="146" cy="103" r="7" fill="#bfdbfe" opacity="0.38"/>

  <rect x="110" y="40" width="36" height="10" rx="4" fill="#cbd5e1" stroke="#94a3b8" stroke-width="2"/>
  <line x1="128" y1="40" x2="128" y2="28" stroke="#94a3b8" stroke-width="2"/>
  <circle cx="128" cy="26" r="4" fill="#e2e8f0"/>
</svg>