<svg xmlns="http://www.w3.org/2000/svg" viewBox="0 0 256 256" role="img" aria-label="Rocket">
  <defs>
    <linearGradient id="sky" x1="0" y1="0" x2="0" y2="1">
      <stop offset="0%" stop-color="#0f172a"/>
      <stop offset="100%" stop-color="#111827"/>
    </linearGradient>
    <linearGradient id="body" x1="0" y1="0" x2="1" y2="1">
      <stop offset="0%" stop-color="#f8fafc"/>
      <stop offset="100%" stop-color="#94a3b8"/>
    </linearGradient>
    <linearGradient id="flame" x1="0" y1="0" x2="0" y2="1">
      <stop offset="0%" stop-color="#fde68a"/>
      <stop offset="60%" stop-color="#f59e0b"/>
      <stop offset="100%" stop-color="#ef4444"/>
    </linearGradient>
  </defs>
  <rect width="256" height="256" fill="url(#sky)"/>
  <path d="M128 28c28 22 44 56 44 98v50H84v-50c0-42 16-76 44-98z" fill="url(#body)" stroke="#64748b" stroke-width="6"/>
  <circle cx="128" cy="106" r="19" fill="#60a5fa" stroke="#e0f2fe" stroke-width="6"/>
  <path d="M84 148l-30 26 30 8z" fill="#f43f5e"/>
  <path d="M172 148l30 26-30 8z" fill="#f43f5e"/>
  <path d="M102 176h52l-8 24h-36z" fill="#475569"/>
  <path d="M128 200c18 10 18 34 0 46-18-12-18-36 0-46z" fill="url(#flame)"/>
</svg>